<mxfile host="app.diagrams.net" modified="2024-06-06T12:05:01.441Z" agent="Mozilla/5.0 (Macintosh; Intel Mac OS X 10_15_7) AppleWebKit/605.1.15 (KHTML, like Gecko) Version/17.1 Safari/605.1.15" version="24.4.15" etag="_7_V9YtCLmYMhyR5zZWb" type="github">
  <diagram name="Page-1" id="Obk5Q5juzl2-24iUYBb0">
    <mxGraphModel>
      <root>
        <mxCell id="0" />
        <mxCell id="1" parent="0" />
      </root>
    </mxGraphModel>
  </diagram>
</mxfile>
